<mxfile host="app.diagrams.net" modified="2022-02-27T05:43:45.523Z" agent="5.0 (Windows NT 10.0; Win64; x64) AppleWebKit/537.36 (KHTML, like Gecko) Chrome/95.0.4638.69 Safari/537.36 Edg/95.0.1020.44" etag="I2MwA3UjUh_5KINV_h7d" version="16.6.4" type="github">
  <diagram id="853e-oujr_klKH8wBVBX" name="Page-1">
    <mxGraphModel dx="1636" dy="882" grid="1" gridSize="10" guides="1" tooltips="1" connect="1" arrows="1" fold="1" page="1" pageScale="1" pageWidth="827" pageHeight="1169" math="0" shadow="0">
      <root>
        <mxCell id="0" />
        <mxCell id="1" parent="0" />
      </root>
    </mxGraphModel>
  </diagram>
</mxfile>
